Coordinates
version=1
nRows=17
nColumns=33
inDegrees=yes

Units are S.I. units (second, meters, Newtons, ...)
Angles are in degrees.

endheader
time	ground_thorax_rot_x	ground_thorax_rot_y	ground_thorax_rot_z	ground_thorax_tx	ground_thorax_ty	ground_thorax_tz	clav_prot_r	clav_elev_r	scapula_abduction_r	scapula_elevation_r	scapula_upward_rot_r	scapula_winging_r	shoulder_elv_r	plane_of_elev_r	axial_rot_r	elbow_flexion_r	pro_sup_r	wrist_flex_r	wrist_dev_r	clav_prot_l	clav_elev_l	scapula_abduction_l	scapula_elevation_l	scapula_upward_rot_l	scapula_winging_l	shoulder_elv_l	plane_of_elev_l	axial_rot_l	elbow_flexion_l	pro_sup_l	wrist_flex_l	wrist_dev_l
      6.90000000	     24.48742840	     33.96449796	     47.25351041	    -49.34539993	    778.36977975	      7.99340566	     14.12524928	     36.13987832	     32.94215206	     45.00000000	    -45.00000000	  -2596.25453003	  -1553.74374576	    145.96389795	    179.99999979	   2884.86605882	     56.43896134	     21.46871771	     13.33757686	      7.11630259	    -45.00000000	    -36.37452807	     45.00000000	    -45.00000000	   2251.45423098	  -1372.29149922	     17.37341848	    -62.59101195	    366.91340518	     25.63921478	      9.56602356	    -18.56667768
      6.91000000	     24.60500417	     33.90532700	     47.17800909	    -49.62244586	    778.30192302	      7.98045750	     14.16584156	     36.20594200	     33.13135065	     45.00000000	    -45.00000000	  -2596.28766615	  -1553.79265760	    145.95594829	    179.99999979	   2884.77574774	     56.46087149	     21.67774285	     13.39223696	      6.77967388	    -45.00000000	    -36.04920258	     45.00000000	    -45.00000000	   2251.48157053	  -1372.24879542	     17.40596737	    -62.68514120	    366.83575030	     25.69550135	      9.69591404	    -18.69759796
      6.92000000	     24.56333171	     33.95020996	     47.11801240	    -49.94409421	    778.20651094	      7.96475363	     14.23550048	     36.18115153	     33.02434802	     45.00000000	    -45.00000000	  -2596.31042445	  -1553.74261265	    145.89091958	    179.99999979	   2884.87543986	     56.46276028	     21.41460337	     13.32503982	      6.79707416	    -45.00000000	    -36.23740185	     45.00000000	    -45.00000000	   2251.48819875	  -1372.22381435	     17.39757836	    -62.64145112	    366.90660900	     25.70702321	      9.54819611	    -18.57664714
      6.93000000	     24.58682855	     33.95239537	     47.17397210	    -50.31059149	    778.08677107	      7.94674567	     14.12715290	     36.21480217	     33.18188864	     45.00000000	    -45.00000000	  -2596.36711473	  -1553.75307424	    145.96832023	    179.99999979	   2884.79379132	     56.41704273	     21.74836794	     13.42252844	      6.84748310	    -45.00000000	    -36.00858886	     45.00000000	    -45.00000000	   2251.55976011	  -1372.20905074	     17.42667381	    -62.60959550	    366.79772414	     25.73928413	      9.72366434	    -18.70634059
      6.94000000	     24.58401395	     33.99633640	     47.04790625	    -50.71920033	    777.94821762	      7.92585675	     14.23346411	     36.19563768	     32.99661098	     45.00000000	    -45.00000000	  -2596.36910931	  -1553.69203128	    145.83800871	    179.99999979	   2884.84695492	     56.40269097	     21.33606901	     13.32882436	      6.75771690	    -45.00000000	    -36.25482896	     45.00000000	    -45.00000000	   2251.53166671	  -1372.19151560	     17.41701298	    -62.58579862	    366.88387175	     25.74430490	      9.55695138	    -18.58671407
      6.95000000	     24.61950296	     33.96278899	     47.14664330	    -51.16747223	    777.79614290	      7.90164925	     14.08889537	     36.22172242	     33.24473668	     45.00000000	    -45.00000000	  -2596.43228027	  -1553.74988680	    146.00725919	    179.99999979	   2884.78153928	     56.33133024	     21.84162455	     13.48404107	      6.86400792	    -45.00000000	    -35.92796947	     45.00000000	    -45.00000000	   2251.64485232	  -1372.18947378	     17.44308792	    -62.52712823	    366.77531092	     25.76928721	      9.73808494	    -18.71159718
      6.96000000	     24.63396580	     34.00490355	     46.96384159	    -51.65678150	    777.63416141	      7.87361657	     14.23524783	     36.21305181	     32.97212571	     45.00000000	    -45.00000000	  -2596.41952226	  -1553.62904031	    145.78065355	    179.99999979	   2884.82039690	     56.32747549	     21.25575271	     13.33274407	      6.73908898	    -45.00000000	    -36.28096141	     45.00000000	    -45.00000000	   2251.58764490	  -1372.15079532	     17.43775458	    -62.50649490	    366.85125912	     25.77078777	      9.55831806	    -18.59532087
      6.97000000	     24.68575141	     33.94449620	     47.06662175	    -52.18260229	    777.46743353	      7.84164657	     14.05320814	     36.22342260	     33.31587626	     45.00000000	    -45.00000000	  -2596.50086320	  -1553.72925962	    146.03800767	    179.99999979	   2884.77204611	     56.26027549	     21.94320609	     13.55564833	      6.87059554	    -45.00000000	    -35.90405487	     45.00000000	    -45.00000000	   2251.72916296	  -1372.12247244	     17.47657844	    -62.42385250	    366.74732954	     25.79037645	      9.74496269	    -18.71266512
      6.98000000	     24.72075033	     33.97540166	     46.88523448	    -52.74753600	    777.29804442	      7.80545100	     14.21693036	     36.23082613	     33.02457413	     45.00000000	    -45.00000000	  -2596.49264291	  -1553.54752587	    145.78823732	    179.99999979	   2884.83573565	     56.27329739	     21.25951948	     13.34348357	      6.74831446	    -45.00000000	    -36.24627045	     45.00000000	    -45.00000000	   2251.69028506	  -1372.10967992	     17.45395336	    -62.36705870	    366.82452891	     25.78086801	      9.56112722	    -18.61419540
      6.99000000	     24.80019673	     33.90170053	     46.88192199	    -53.35147676	    777.12864157	      7.76509940	     14.06661728	     36.22595931	     33.27573554	     45.00000000	    -45.00000000	  -2596.59308883	  -1553.63656494	    145.95925214	    179.99999979	   2884.83201194	     56.23228721	     21.95209692	     13.58114852	      6.84826978	    -45.00000000	    -35.97453914	     45.00000000	    -45.00000000	   2251.76806915	  -1372.11015749	     17.50620360	    -62.28374952	    366.82743669	     25.78673777	      9.73482524	    -18.72966542
      7.00000000	     24.82876053	     33.87014522	     46.73576430	    -53.99260419	    776.96199382	      7.72120330	     14.20951320	     36.24921982	     33.01629345	     45.00000000	    -45.00000000	  -2596.55108866	  -1553.51085114	    145.74772773	    179.99999979	   2884.92073113	     56.26594594	     21.27382190	     13.33964831	      6.73492258	    -45.00000000	    -36.21639546	     45.00000000	    -45.00000000	   2251.76271201	  -1372.07638679	     17.50597697	    -62.17789442	    366.85991359	     25.76671622	      9.56330250	    -18.64607823
      7.01000000	     24.94014009	     33.77519135	     46.70558235	    -54.67436626	    776.79980237	      7.67422948	     14.04486442	     36.22498408	     33.32458722	     45.00000000	    -45.00000000	  -2596.66198387	  -1553.58132969	    145.94515896	    179.99999979	   2884.89166450	     56.25417197	     22.09568053	     13.64970358	      6.85065503	    -45.00000000	    -35.96919857	     45.00000000	    -45.00000000	   2251.84435467	  -1372.02133346	     17.59826789	    -62.06786565	    366.83422693	     25.76466678	      9.73820682	    -18.74465558
      7.02000000	     24.96484205	     33.74308991	     46.48614363	    -55.39585075	    776.64526868	      7.62505429	     14.22431922	     36.25673383	     32.96070401	     45.00000000	    -45.00000000	  -2596.62324631	  -1553.43861141	    145.65627155	    179.99999979	   2885.02768536	     56.30917065	     21.21731959	     13.29724717	      6.70273308	    -45.00000000	    -36.24096141	     45.00000000	    -45.00000000	   2251.81056267	  -1371.99156646	     17.64139381	    -61.91249452	    366.92086999	     25.72240154	      9.55343155	    -18.67931514
      7.03000000	     25.10848404	     33.65325719	     46.45691628	    -56.16273027	    776.50084269	      7.57391665	     14.04425139	     36.24581866	     33.38886379	     45.00000000	    -45.00000000	  -2596.73660146	  -1553.46836180	    145.94555182	    179.99999979	   2885.00286117	     56.31098481	     22.23172321	     13.69390534	      6.84105383	    -45.00000000	    -36.00299277	     45.00000000	    -45.00000000	   2251.90513778	  -1371.95888767	     17.67380901	    -61.74701719	    366.85720991	     25.71739013	      9.74794154	    -18.76837208
      7.04000000	     25.20350311	     33.59218323	     46.26861232	    -56.98336278	    776.36926174	      7.52063308	     14.16144858	     36.24267474	     33.16087552	     45.00000000	    -45.00000000	  -2596.74623734	  -1553.34070220	    145.76852981	    179.99999979	   2885.15513208	     56.36416789	     21.47054061	     13.35641522	      6.74084294	    -45.00000000	    -36.19661235	     45.00000000	    -45.00000000	   2251.87915395	  -1372.01820972	     17.71627247	    -61.50556507	    366.95666702	     25.65835248	      9.57982065	    -18.72708548
      7.05000000	     25.33361214	     33.42162684	     46.07952508	    -57.85138581	    776.25615737	      7.46556220	     14.06002174	     36.24018923	     33.33557097	     45.00000000	    -45.00000000	  -2596.83785435	  -1553.32729402	    145.75064630	    179.99999979	   2885.16022877	     56.38473567	     22.29879884	     13.70812930	      6.80943416	    -45.00000000	    -36.02428800	     45.00000000	    -45.00000000	   2251.96816331	  -1371.87660706	     17.88741134	    -61.31099212	    367.05533486	     25.62954283	      9.73091233	    -18.83108303
      7.06000000	     25.37093882	     33.34755289	     45.87841939	    -58.77371230	    776.16440758	      7.40791357	     14.18124384	     36.27723714	     33.13965187	     45.00000000	    -45.00000000	  -2596.81361288	  -1553.30258214	    145.65189855	    179.99999979	   2885.38014604	     56.42878538	     21.38920900	     13.25865624	      6.67993353	    -45.00000000	    -36.22842935	     45.00000000	    -45.00000000	   2251.95279508	  -1371.81069464	     17.95878622	    -61.03275878	    367.09453987	     25.57208780	      9.54054304	    -18.78176291
